<?xml version="1.0" encoding="utf-8"?>
<!-- Generator: Adobe Illustrator 23.0.1, SVG Export Plug-In . SVG Version: 6.00 Build 0)  -->
<svg version="1.1" id="Layer_1" xmlns="http://www.w3.org/2000/svg" xmlns:xlink="http://www.w3.org/1999/xlink" x="0px" y="0px"
	 viewBox="0 0 128 128" style="enable-background:new 0 0 128 128;" xml:space="preserve">
<style type="text/css">
	.st0{fill:#00AED8;}
	.st1{fill:#FBAB4B;}
</style>
<path class="st0" d="M112.61,17.12c-4.42-4.33-9.68-7.63-15.62-9.79C91,5.14,84.55,4.03,77.8,4.03c-6.55,0-12.89,1.11-18.82,3.29
	c-5.9,2.17-11.16,5.47-15.64,9.8c-4.49,4.35-8.11,9.79-10.75,16.19c-2.66,6.4-4,13.95-4,22.44c0,8.51,1.3,16.06,3.86,22.47
	c0.31,0.77,0.64,1.51,0.99,2.24c6.92-1.49,13.56-3,19.8-4.53c-0.98-1.89-1.81-3.92-2.46-6.07c-1.27-4.18-1.92-8.93-1.92-14.11
	c0-5.07,0.65-9.79,1.92-14.02c1.28-4.27,3.18-8,5.62-11.07c2.47-3.1,5.53-5.54,9.11-7.28c3.57-1.73,7.71-2.62,12.29-2.62
	c4.46,0,8.56,0.85,12.19,2.53c3.64,1.68,6.73,4.11,9.2,7.22c2.44,3.06,4.33,6.79,5.63,11.07c1.27,4.26,1.92,9.02,1.92,14.17
	c0,1.79-0.09,3.57-0.25,5.31l4.08-1.33c2.77-0.9,5.41-1.75,7.93-2.58c2.66-0.87,4.44-1.44,5.34-1.71L127,54.5
	c-0.13-7.99-1.42-15.12-3.85-21.21C120.59,26.89,117.05,21.46,112.61,17.12z"/>
<path class="st1" d="M66.21,84.41c-2.18,0.55-4.4,1.12-6.7,1.69c-5.95,1.48-12.54,3-20.16,4.67c-10.95,2.4-21.62,4.53-32.58,6.51
	l-5.82,17.1c8.3-0.79,17.07-1.87,26.1-3.2c9.84-1.45,19.81-3.18,29.64-5.13c3.03-0.6,7.35-1.53,12.83-2.74
	c8.29-1.85,16.23-3.7,16.23-3.7l1.7-0.4l0.41,1.7c0,0,0.34,1.42,0.88,3.54c2.83,11.08,4.82,17.12,5.92,19.55
	c14.31-15.88,22.51-33.44,26.9-45.53c1.79-4.93,2.94-8.93,3.6-11.46c-0.61,0.2-1.3,0.41-2.07,0.67c-2.51,0.83-5.16,1.69-7.95,2.59
	l-8.17,2.65c-2.66,0.87-4.85,1.57-6.54,2.08C91.23,77.82,79.76,80.97,66.21,84.41z"/>
</svg>
